<svg xmlns="http://www.w3.org/2000/svg" width="180" height="180" viewBox="0 0 180 180">
  <circle cx="90" cy="90" r="86" fill="#062E67"/>
  <circle cx="90" cy="90" r="82" fill="none" stroke="#0A3B7A" stroke-width="2"/>
  <path d="M63 48 71 35l10 13 9-22 9 22 10-13 8 13-8 8H71Z" fill="#D7A13A"/>
  <path d="M68 58h44" fill="none" stroke="#D7A13A" stroke-width="5" stroke-linecap="round"/>
  <text x="90" y="119" text-anchor="middle" font-family="Georgia, Times New Roman, serif" font-size="72" font-weight="700" fill="#FFFFFF">E</text>
  <g fill="none" stroke="#D7A13A" stroke-width="3.2" stroke-linecap="round" stroke-linejoin="round">
    <path d="M52 91c-11 17-9 35 5 49 7 7 15 12 25 15"/>
    <path d="M128 91c11 17 9 35-5 49-7 7-15 12-25 15"/>
    <path d="m52 105-11-7m13 18-13-2m19 12-12 4m21 4-8 9"/>
    <path d="m128 105 11-7m-13 18 13-2m-19 12 12 4m-21 4 8 9"/>
  </g>
</svg>
